<mxfile host="app.diagrams.net" modified="2024-04-22T04:57:53.952Z" agent="Mozilla/5.0 (Windows NT 10.0; Win64; x64) AppleWebKit/537.36 (KHTML, like Gecko) Chrome/122.0.0.0 Safari/537.36" version="24.2.1" etag="mgukhTPFyIs8gMYk0zgs" type="github">
  <diagram name="第 1 页" id="OoUGfkh0izR5k8-YrrKu">
    <mxGraphModel>
      <root>
        <mxCell id="0" />
        <mxCell id="1" parent="0" />
      </root>
    </mxGraphModel>
  </diagram>
</mxfile>
